<svg xmlns="http://www.w3.org/2000/svg" xml:space="preserve" width="500" height="500" viewBox="0 0 132.292 132.292">
  <path d="M0 0h132.292v132.292H0z" style="fill:#fee6b8;fill-opacity:1;stroke-width:.264583"/>
  <path d="m48.941 45.644-7.162 4.244q-2.009-3.486-3.828-4.547-1.895-1.213-4.888-1.213-3.676 0-6.102 2.085-2.425 2.046-2.425 5.153 0 4.283 6.367 6.897l5.835 2.388q7.125 2.88 10.422 7.049 3.297 4.13 3.297 10.156 0 8.072-5.381 13.34-5.42 5.305-13.453 5.305-7.618 0-12.582-4.51-4.889-4.51-6.101-12.695l8.943-1.97q.607 5.153 2.122 7.124 2.729 3.79 7.959 3.79 4.13 0 6.859-2.767 2.728-2.767 2.728-7.01 0-1.706-.492-3.108-.455-1.44-1.478-2.615-.986-1.213-2.577-2.236-1.592-1.061-3.79-2.009l-5.646-2.35q-12.013-5.077-12.013-14.854 0-6.594 5.04-11.028 5.04-4.472 12.543-4.472 10.119 0 15.803 9.853zm9.247 20.274q0-12.354 9.057-21.221 9.02-8.868 21.676-8.868 12.506 0 21.45 8.943 8.98 8.944 8.98 21.488 0 12.619-9.018 21.41-9.058 8.83-21.866 8.83-11.331 0-20.35-7.844-9.93-8.678-9.93-22.738zm8.905.114q0 9.702 6.518 15.954 6.48 6.253 14.97 6.253 9.208 0 15.537-6.366 6.328-6.443 6.328-15.69 0-9.36-6.253-15.688-6.214-6.367-15.385-6.367-9.133 0-15.424 6.367-6.29 6.29-6.29 15.537z" aria-label="SO" style="display:inline;fill:#0f0f0f;stroke-width:.264583"/>
</svg>
