<svg xmlns="http://www.w3.org/2000/svg" viewBox="0 0 35 40">
  <path d="M22.34 17.205q3.851-4.893 5.937-6.765 2.113-1.9 3.61-1.9 1.23 0 2.14.99.91.99.91 2.354 0 1.979-2.622 3.129-2.62 1.15-9.975 2.192zm-4.813-2.808q-1.525-3.717-2.354-6.444-.829-2.728-.829-4.119 0-1.631.83-2.54.828-.91 2.3-.91 1.524 0 2.353.91.829.909.829 2.54 0 1.337-.83 4.119-.802 2.754-2.3 6.444zm4.813 8.398q7.355 1.043 9.975 2.192 2.621 1.15 2.621 3.103 0 1.39-.91 2.38-.908.962-2.139.962-1.497 0-3.61-1.872-2.086-1.872-5.937-6.765zm-.107-2.808q0 1.952-1.39 3.342-1.364 1.391-3.316 1.391-1.98 0-3.37-1.364-1.39-1.39-1.39-3.37 0-1.925 1.39-3.315 1.39-1.391 3.316-1.391 1.952 0 3.343 1.39 1.417 1.391 1.417 3.317zm-9.573-2.782q-7.355-1.043-9.975-2.192-2.621-1.15-2.621-3.13 0-1.363.91-2.353.908-.99 2.139-.99 1.497 0 3.583 1.9 2.086 1.872 5.964 6.765zm4.813 8.37q1.525 3.745 2.354 6.473.829 2.727.829 4.118 0 1.631-.83 2.54-.828.91-2.3.91-1.524 0-2.353-.91-.829-.909-.829-2.54 0-1.364.803-4.092.802-2.727 2.326-6.498zm-4.813-2.78q-3.932 5-5.99 6.819-2.06 1.818-3.557 1.818-.75 0-1.391-.374-.642-.401-1.23-1.257-.214-.508-.321-.91-.107-.4-.107-.801 0-1.953 2.62-3.103 2.621-1.15 9.976-2.192z" aria-label="asterisk"/>
</svg>
